<?xml version="1.0" encoding="utf-8"?>
<!-- Generator: Adobe Illustrator 24.0.1, SVG Export Plug-In . SVG Version: 6.00 Build 0)  -->
<svg version="1.1" id="Layer_1" xmlns="http://www.w3.org/2000/svg" xmlns:xlink="http://www.w3.org/1999/xlink" x="0px" y="0px"
	 viewBox="0 0 99 99" style="enable-background:new 0 0 99 99;" xml:space="preserve">
<style type="text/css">
	.st0{fill:#FFFFFF;}
	.st1{fill:#F91427;}
	.st2{fill:#004DD9;}
</style>
<path class="st0" d="M69.6,98.9H29.2c-16.2,0-29.3-13.1-29.3-29.3V29.2c0-16.2,13.1-29.3,29.3-29.3h40.4c16.2,0,29.3,13.1,29.3,29.3
	v40.4C98.9,85.8,85.8,98.9,69.6,98.9z"/>
<g>
	<path id="XMLID_103_" class="st1" d="M70.6,60c-1.9,3.4-4.5,6.2-7.8,8.3s-7.3,3.2-12,3.2c-3.2,0-6.1-0.6-8.9-1.7
		c-2.7-1.1-5.1-2.7-7.1-4.7c-2-2-3.5-4.3-4.7-7.1c-1.1-2.7-1.7-5.7-1.7-8.9c0-3,0.5-5.9,1.6-8.6c1.1-2.7,2.6-5.1,4.5-7.1
		c1.9-2,4.2-3.6,6.9-4.8c2.6-1.2,5.6-1.8,8.8-1.8c3.4,0,6.4,0.6,9,1.7c2.6,1.1,4.8,2.7,6.6,4.6c1.8,2,3.1,4.3,4,7
		c0.9,2.7,1.4,5.6,1.4,8.7v1c-0.1,0.3-0.1,0.7-0.1,0.9c-0.1,0.3-0.1,0.6-0.1,0.9H39.6c0.2,1.7,0.7,3.2,1.4,4.4
		c0.7,1.2,1.6,2.3,2.7,3.1c1.1,0.8,2.2,1.4,3.5,1.8c1.3,0.4,2.5,0.6,3.9,0.6c2.6,0,4.7-0.6,6.4-1.8c1-0.7,1.8-1.4,2.5-2.3
		c1-1.2,2.7-1.5,4.1-0.8L70.6,60z M60.4,43.8c-0.1-0.7-0.3-1.6-0.7-2.5c-0.4-0.9-1.1-1.8-1.9-2.6c-0.8-0.8-1.9-1.5-3.1-2
		C53.5,36.2,52,36,50.3,36c-2.4,0-4.5,0.7-6.3,2.1c-1.8,1.4-3.1,3.3-3.9,5.7H60.4z"/>
	<path id="XMLID_100_" class="st2" d="M74.3,99H24.7C11.1,99,0,87.9,0,74.3V24.7C0,11.1,11.1,0,24.7,0h49.5C87.9,0,99,11.1,99,24.7
		v49.5C99,87.9,87.9,99,74.3,99 M24.7,7.3c-9.6,0-17.4,7.8-17.4,17.4v49.5c0,9.6,7.8,17.4,17.4,17.4h49.5c9.6,0,17.4-7.8,17.4-17.4
		V24.7c0-9.6-7.8-17.4-17.4-17.4H24.7z"/>
</g>
</svg>
